<svg xmlns="http://www.w3.org/2000/svg" version="1.1" xmlns:xlink="http://www.w3.org/1999/xlink" width="512" height="512" x="0" y="0" viewBox="0 0 682.667 682.667" style="enable-background:new 0 0 512 512" xml:space="preserve" class=""><g><defs><clipPath id="a" clipPathUnits="userSpaceOnUse"><path d="M0 512h512V0H0Z" fill="#974a00" opacity="1" data-original="#000000"></path></clipPath></defs><g clip-path="url(#a)" transform="matrix(1.33333 0 0 -1.33333 0 682.667)"><path d="m0 0-.844-9.202c-3.348-35.316-5.175-72.074 7.665-105.143 16.039-41.309 55.939-78.923 92.913-102.01 8.549-5.339 26.638-14.568 37.33-14.495 10.693-.073 28.782 9.156 37.331 14.495 36.974 23.087 76.874 60.701 92.913 102.01 12.839 33.069 11.013 69.827 7.665 105.143l-1.065 11.615" style="stroke-width:15;stroke-linecap:round;stroke-linejoin:round;stroke-miterlimit:10;stroke-dasharray:none;stroke-opacity:1" transform="translate(128.581 238.007)" fill="none" stroke="#974a00" stroke-width="15" stroke-linecap="round" stroke-linejoin="round" stroke-miterlimit="10" stroke-dasharray="none" stroke-opacity="" data-original="#000000" opacity="1" class=""></path><path d="M0 0c3.696 27.841 23.585 54.272 48.047 66.09 35.913 17.35 78.378 13.976 113.231-4.313 19.044-9.993 37.3-23.982 48.556-42.619 4.543-7.522 7.524-16.982 9.447-27.158" style="stroke-width:15;stroke-linecap:round;stroke-linejoin:round;stroke-miterlimit:10;stroke-dasharray:none;stroke-opacity:1" transform="translate(162.433 427.39)" fill="none" stroke="#974a00" stroke-width="15" stroke-linecap="round" stroke-linejoin="round" stroke-miterlimit="10" stroke-dasharray="none" stroke-opacity="" data-original="#000000" opacity="1" class=""></path><path d="M0 0c-14.822-7.936-30.41-18.396-44.887-32.113 0 0-1.781-1.512-4.632-4.375-36.43-36.593-45.662-92.269-23.432-138.874l5.542-11.617c5.605 13.075 8.225 28.817 18.843 38.286 14.499 12.931 32.443 21.206 49.942 29.646 22.325 10.767 44.87 22.517 64.579 37.392" style="stroke-width:15;stroke-linecap:round;stroke-linejoin:round;stroke-miterlimit:10;stroke-dasharray:none;stroke-opacity:1" transform="translate(195.823 423.026)" fill="none" stroke="#974a00" stroke-width="15" stroke-linecap="round" stroke-linejoin="round" stroke-miterlimit="10" stroke-dasharray="none" stroke-opacity="" data-original="#000000" opacity="1" class=""></path><path d="M0 0c-26.034 14.218-50.968 30.216-75.389 47.088-18.05 12.471-32.685 24.917-36.312 47.103-4.461 27.291 14.794 52.547 41.732 55.8 29.673 3.582 57.452-17.178 81.416-31.645C42.4 99.66 74.544 79.687 94.128 48.301c21.762-34.876 24.162-81.078 6.482-118.14l-5.541-11.617c-5.606 13.074-8.226 28.817-18.842 38.285-13.292 11.855-29.48 19.796-45.566 27.539" style="stroke-width:15;stroke-linecap:round;stroke-linejoin:round;stroke-miterlimit:10;stroke-dasharray:none;stroke-opacity:1" transform="translate(308.047 317.504)" fill="none" stroke="#974a00" stroke-width="15" stroke-linecap="round" stroke-linejoin="round" stroke-miterlimit="10" stroke-dasharray="none" stroke-opacity="" data-original="#000000" opacity="1" class=""></path><path d="M0 0s-6.577-27.272-32.887-40.106C-6.577-52.94 0-80.212 0-80.212S6.577-52.94 32.887-40.106C6.577-27.272 0 0 0 0Z" style="stroke-width:15;stroke-linecap:round;stroke-linejoin:round;stroke-miterlimit:10;stroke-dasharray:none;stroke-opacity:1" transform="translate(467.953 224.61)" fill="none" stroke="#974a00" stroke-width="15" stroke-linecap="round" stroke-linejoin="round" stroke-miterlimit="10" stroke-dasharray="none" stroke-opacity="" data-original="#000000" opacity="1" class=""></path><path d="M0 0s-6.577-27.272-32.887-40.106C-6.577-52.94 0-80.212 0-80.212S6.577-52.94 32.887-40.106C6.577-27.272 0 0 0 0Z" style="stroke-width:15;stroke-linecap:round;stroke-linejoin:round;stroke-miterlimit:10;stroke-dasharray:none;stroke-opacity:1" transform="translate(82.74 105.965)" fill="none" stroke="#974a00" stroke-width="15" stroke-linecap="round" stroke-linejoin="round" stroke-miterlimit="10" stroke-dasharray="none" stroke-opacity="" data-original="#000000" opacity="1" class=""></path><path d="M0 0a78.06 78.06 0 0 0 13.847 8.653C-20.991 25.646-29.7 61.758-29.7 61.758s-8.71-36.112-43.547-53.105C-38.41-8.341-29.7-44.453-29.7-44.453s1.883 7.807 7.4 17.871" style="stroke-width:15;stroke-linecap:round;stroke-linejoin:round;stroke-miterlimit:10;stroke-dasharray:none;stroke-opacity:1" transform="translate(84.407 174.339)" fill="none" stroke="#974a00" stroke-width="15" stroke-linecap="round" stroke-linejoin="round" stroke-miterlimit="10" stroke-dasharray="none" stroke-opacity="" data-original="#000000" opacity="1" class=""></path><path d="M0 0a16.786 16.786 0 0 0-11.908-4.933A16.787 16.787 0 0 0-23.817 0" style="stroke-width:15;stroke-linecap:round;stroke-linejoin:round;stroke-miterlimit:10;stroke-dasharray:none;stroke-opacity:1" transform="translate(277.554 149.332)" fill="none" stroke="#974a00" stroke-width="15" stroke-linecap="round" stroke-linejoin="round" stroke-miterlimit="10" stroke-dasharray="none" stroke-opacity="" data-original="#000000" opacity="1" class=""></path><path d="M0 0a26.24 26.24 0 0 0 18.613 7.71c7.27 0 13.851-2.946 18.615-7.71" style="stroke-width:15;stroke-linecap:round;stroke-linejoin:round;stroke-miterlimit:10;stroke-dasharray:none;stroke-opacity:1" transform="translate(191.537 195.636)" fill="none" stroke="#974a00" stroke-width="15" stroke-linecap="round" stroke-linejoin="round" stroke-miterlimit="10" stroke-dasharray="none" stroke-opacity="" data-original="#000000" opacity="1" class=""></path><path d="M0 0c14.675 4.804 31.737 5.524 45.746 0" style="stroke-width:15;stroke-linecap:round;stroke-linejoin:round;stroke-miterlimit:10;stroke-dasharray:none;stroke-opacity:1" transform="translate(191.537 241.775)" fill="none" stroke="#974a00" stroke-width="15" stroke-linecap="round" stroke-linejoin="round" stroke-miterlimit="10" stroke-dasharray="none" stroke-opacity="" data-original="#000000" opacity="1" class=""></path><path d="M0 0a26.24 26.24 0 0 1-18.613 7.71A26.242 26.242 0 0 1-37.228 0" style="stroke-width:15;stroke-linecap:round;stroke-linejoin:round;stroke-miterlimit:10;stroke-dasharray:none;stroke-opacity:1" transform="translate(339.754 195.636)" fill="none" stroke="#974a00" stroke-width="15" stroke-linecap="round" stroke-linejoin="round" stroke-miterlimit="10" stroke-dasharray="none" stroke-opacity="" data-original="#000000" opacity="1" class=""></path><path d="M0 0c-14.676 4.804-31.737 5.524-45.747 0" style="stroke-width:15;stroke-linecap:round;stroke-linejoin:round;stroke-miterlimit:10;stroke-dasharray:none;stroke-opacity:1" transform="translate(339.754 241.775)" fill="none" stroke="#974a00" stroke-width="15" stroke-linecap="round" stroke-linejoin="round" stroke-miterlimit="10" stroke-dasharray="none" stroke-opacity="" data-original="#000000" opacity="1" class=""></path><path d="M0 0c-.157 2.755-3.323 4.199-5.534 2.547-20.249-15.124-49.039-14.603-49.039-14.603s-28.79-.521-49.039 14.603c-2.211 1.652-5.377.208-5.534-2.547-.658-11.495 1.364-35.365 26.631-48.911 17.391-9.322 38.492-9.322 55.883 0C-1.364-35.365.657-11.495 0 0Z" style="stroke-width:15;stroke-linecap:round;stroke-linejoin:round;stroke-miterlimit:10;stroke-dasharray:none;stroke-opacity:1" transform="translate(320.219 123.337)" fill="none" stroke="#974a00" stroke-width="15" stroke-linecap="round" stroke-linejoin="round" stroke-miterlimit="10" stroke-dasharray="none" stroke-opacity="" data-original="#000000" opacity="1" class=""></path><path d="M0 0h31.578" style="stroke-width:15;stroke-linecap:round;stroke-linejoin:round;stroke-miterlimit:10;stroke-dasharray:none;stroke-opacity:1" transform="translate(419.277 98.157)" fill="none" stroke="#974a00" stroke-width="15" stroke-linecap="round" stroke-linejoin="round" stroke-miterlimit="10" stroke-dasharray="none" stroke-opacity="" data-original="#000000" opacity="1" class=""></path><path d="M0 0v-31.578" style="stroke-width:15;stroke-linecap:round;stroke-linejoin:round;stroke-miterlimit:10;stroke-dasharray:none;stroke-opacity:1" transform="translate(435.066 113.946)" fill="none" stroke="#974a00" stroke-width="15" stroke-linecap="round" stroke-linejoin="round" stroke-miterlimit="10" stroke-dasharray="none" stroke-opacity="" data-original="#000000" opacity="1" class=""></path><path d="M0 0h31.577" style="stroke-width:15;stroke-linecap:round;stroke-linejoin:round;stroke-miterlimit:10;stroke-dasharray:none;stroke-opacity:1" transform="translate(44.382 296.37)" fill="none" stroke="#974a00" stroke-width="15" stroke-linecap="round" stroke-linejoin="round" stroke-miterlimit="10" stroke-dasharray="none" stroke-opacity="" data-original="#000000" opacity="1" class=""></path><path d="M0 0v-31.578" style="stroke-width:15;stroke-linecap:round;stroke-linejoin:round;stroke-miterlimit:10;stroke-dasharray:none;stroke-opacity:1" transform="translate(60.17 312.16)" fill="none" stroke="#974a00" stroke-width="15" stroke-linecap="round" stroke-linejoin="round" stroke-miterlimit="10" stroke-dasharray="none" stroke-opacity="" data-original="#000000" opacity="1" class=""></path></g></g></svg>
